<?xml version="1.0" encoding="UTF-8"?>
<svg xmlns="http://www.w3.org/2000/svg" viewBox="0 0 640 170" width="1280" height="340">
  <defs>
    <style>
      @font-face {
        font-family: 'Giaza';
        src: local('Giaza');
      }
    </style>
  </defs>
  <!-- HACIENDA -->
  <text x="262" y="44" 
    text-anchor="middle" 
    font-family="'Helvetica','Helvetica Neue',Arial,sans-serif" 
    font-size="14" 
    font-weight="400" 
    letter-spacing="5" 
    fill="#5A5A58">HACIENDA</text>
  
  <!-- El Encanto -->
  <text x="250" y="122" 
    text-anchor="middle" 
    font-family="'Giaza','Cormorant Garamond',Georgia,serif" 
    font-size="82" 
    font-weight="700" 
    letter-spacing="-4"
    fill="#D63B2A">El Encanto</text>
  
  <!-- Shamrock (vectorized from original logo) -->
  <g transform="translate(490,42) scale(0.62)">
    <path d="M75.0,17.0 C73.0,15.8 71.3,15.5 69.0,16.0 C66.7,16.5 63.0,19.8 61.0,20.0 C59.0,20.2 58.8,17.7 57.0,17.0 C55.2,16.3 51.8,16.0 50.0,16.0 C48.2,16.0 47.3,16.2 46.0,17.0 C44.7,17.8 43.0,18.7 42.0,21.0 C41.0,23.3 40.0,28.3 40.0,31.0 C40.0,33.7 40.0,34.0 42.0,37.0 C44.0,40.0 50.2,46.2 52.0,49.0 C53.8,51.8 55.3,55.0 53.0,54.0 C50.7,53.0 41.7,45.3 38.0,43.0 C34.3,40.7 33.7,40.3 31.0,40.0 C28.3,39.7 24.5,39.5 22.0,41.0 C19.5,42.5 16.8,46.3 16.0,49.0 C15.2,51.7 16.3,55.2 17.0,57.0 C17.7,58.8 20.2,58.3 20.0,60.0 C19.8,61.7 16.7,65.0 16.0,67.0 C15.3,69.0 15.7,70.3 16.0,72.0 C16.3,73.7 16.7,75.5 18.0,77.0 C19.3,78.5 21.2,80.5 24.0,81.0 C26.8,81.5 29.7,82.7 35.0,80.0 C40.3,77.3 52.2,67.2 56.0,65.0 C59.8,62.8 57.8,64.5 58.0,67.0 C58.2,69.5 57.8,76.3 57.0,80.0 C56.2,83.7 54.7,86.5 53.0,89.0 C51.3,91.5 49.7,93.5 47.0,95.0 C44.3,96.5 38.5,96.3 37.0,98.0 C35.5,99.7 36.0,103.5 38.0,105.0 C40.0,106.5 46.0,107.2 49.0,107.0 C52.0,106.8 54.2,105.2 56.0,104.0 C57.8,102.8 58.5,102.8 60.0,100.0 C61.5,97.2 63.8,92.7 65.0,87.0 C66.2,81.3 64.0,67.5 67.0,66.0 C70.0,64.5 79.0,75.5 83.0,78.0 C87.0,80.5 88.7,80.5 91.0,81.0 C93.3,81.5 94.7,82.2 97.0,81.0 C99.3,79.8 103.7,76.5 105.0,74.0 C106.3,71.5 105.5,68.3 105.0,66.0 C104.5,63.7 102.0,61.7 102.0,60.0 C102.0,58.3 104.5,58.2 105.0,56.0 C105.5,53.8 105.7,49.3 105.0,47.0 C104.3,44.7 102.7,43.2 101.0,42.0 C99.3,40.8 97.2,40.2 95.0,40.0 C92.8,39.8 90.5,40.2 88.0,41.0 C85.5,41.8 82.8,43.0 80.0,45.0 C77.2,47.0 73.0,51.8 71.0,53.0 C69.0,54.2 66.3,55.5 68.0,52.0 C69.7,48.5 78.8,36.8 81.0,32.0 C83.2,27.2 82.0,25.5 81.0,23.0 C80.0,20.5 77.0,18.2 75.0,17.0 Z" fill="#2E8B4A"/>
  </g>
</svg>